<?xml version="1.0" encoding="UTF-8" standalone="no"?>
<!-- Created with Inkscape (http://www.inkscape.org/) -->

<svg
   xmlns:dc="http://purl.org/dc/elements/1.1/"
   xmlns:cc="http://creativecommons.org/ns#"
   xmlns:rdf="http://www.w3.org/1999/02/22-rdf-syntax-ns#"
   xmlns:svg="http://www.w3.org/2000/svg"
   xmlns="http://www.w3.org/2000/svg"
   xmlns:xlink="http://www.w3.org/1999/xlink"
   xmlns:sodipodi="http://sodipodi.sourceforge.net/DTD/sodipodi-0.dtd"
   xmlns:inkscape="http://www.inkscape.org/namespaces/inkscape"
   width="560"
   height="560"
   viewBox="0 0 148.16666 148.16665"
   version="1.1"
   id="svg8"
   inkscape:version="0.92.2 (5c3e80d, 2017-08-06)"
   sodipodi:docname="logo-no-oficial-aniki-vlogs.svg"
   inkscape:export-filename="C:\Users\EQUIPO\Desktop\Modelo-Fiel\design\sif\aniki-vlogs-logo.svg.png"
   inkscape:export-xdpi="217.02562"
   inkscape:export-ydpi="217.02562">
  <defs
     id="defs2">
    <linearGradient
       inkscape:collect="always"
       xlink:href="#linearGradient5192"
       id="linearGradient5198"
       gradientUnits="userSpaceOnUse"
       gradientTransform="matrix(0.00761495,0,0,0.00761495,-4306.9021,-777.30898)"
       x1="-43014.039"
       y1="-3949.6982"
       x2="-43014.039"
       y2="2484.9736" />
    <linearGradient
       inkscape:collect="always"
       id="linearGradient5192">
      <stop
         style="stop-color:#fdfdfd;stop-opacity:1"
         offset="0"
         id="stop5188" />
      <stop
         style="stop-color:#ebebeb;stop-opacity:1"
         offset="1"
         id="stop5190" />
    </linearGradient>
    <linearGradient
       inkscape:collect="always"
       xlink:href="#linearGradient5156"
       id="linearGradient5158"
       x1="-7814.0488"
       y1="-904.99603"
       x2="-7814.0488"
       y2="1302.6503"
       gradientUnits="userSpaceOnUse"
       gradientTransform="matrix(0.03226315,0,0,0.03226315,-4428.9584,-779.83309)" />
    <linearGradient
       inkscape:collect="always"
       id="linearGradient5156">
      <stop
         style="stop-color:#ffc132;stop-opacity:1"
         offset="0"
         id="stop5152" />
      <stop
         style="stop-color:#ff7010;stop-opacity:1"
         offset="1"
         id="stop5154" />
    </linearGradient>
    <linearGradient
       inkscape:collect="always"
       xlink:href="#linearGradient5164"
       id="linearGradient5166"
       x1="-7757.1084"
       y1="-3248.2578"
       x2="-7757.1084"
       y2="512.2243"
       gradientUnits="userSpaceOnUse"
       gradientTransform="matrix(0.03226315,0,0,0.03226315,-4428.9584,-779.83309)" />
    <linearGradient
       inkscape:collect="always"
       id="linearGradient5164">
      <stop
         style="stop-color:#ffc42b;stop-opacity:1"
         offset="0"
         id="stop5160" />
      <stop
         style="stop-color:#fd8000;stop-opacity:1"
         offset="1"
         id="stop5162" />
    </linearGradient>
    <linearGradient
       inkscape:collect="always"
       xlink:href="#linearGradient5172"
       id="linearGradient5174"
       x1="-7372.4102"
       y1="-3084.8315"
       x2="-7372.4102"
       y2="-2317.7678"
       gradientUnits="userSpaceOnUse"
       gradientTransform="matrix(0.03226315,0,0,0.03226315,-4428.9584,-779.83309)" />
    <linearGradient
       inkscape:collect="always"
       id="linearGradient5172">
      <stop
         style="stop-color:#fab500;stop-opacity:1"
         offset="0"
         id="stop5168" />
      <stop
         style="stop-color:#e67500;stop-opacity:0.99607843"
         offset="1"
         id="stop5170" />
    </linearGradient>
  </defs>
  <sodipodi:namedview
     id="base"
     pagecolor="#ffffff"
     bordercolor="#666666"
     borderopacity="1.0"
     inkscape:pageopacity="0.0"
     inkscape:pageshadow="2"
     inkscape:zoom="0.60304929"
     inkscape:cx="250.53071"
     inkscape:cy="272.21228"
     inkscape:document-units="px"
     inkscape:current-layer="layer1"
     showgrid="false"
     inkscape:window-width="1366"
     inkscape:window-height="706"
     inkscape:window-x="-8"
     inkscape:window-y="-8"
     inkscape:window-maximized="1"
     units="px"
     inkscape:pagecheckerboard="true"
     showborder="false"
     showguides="false"
     inkscape:guide-bbox="true"
     inkscape:snap-global="true"
     inkscape:object-nodes="true">
    <sodipodi:guide
       position="1293.1038,77.893196"
       orientation="1,0"
       id="guide7819"
       inkscape:locked="false" />
  </sodipodi:namedview>
  <metadata
     id="metadata5">
    <rdf:RDF>
      <cc:Work
         rdf:about="">
        <dc:format>image/svg+xml</dc:format>
        <dc:type
           rdf:resource="http://purl.org/dc/dcmitype/StillImage" />
        <dc:title />
      </cc:Work>
    </rdf:RDF>
  </metadata>
  <g
     inkscape:label="Capa 1"
     inkscape:groupmode="layer"
     id="layer1"
     transform="translate(4923.9165,912.12787)">
    <g
       id="g977"
       transform="matrix(1.0261582,0,0,0.98819412,-47.509854,-36.512825)">
      <path
         sodipodi:nodetypes="cccccccccccccccccccccccccccccc"
         inkscape:connector-curvature="0"
         id="path5245"
         d="m -4659.9435,-883.37775 c -1.8325,0.0195 -4.1807,0.28972 -4.9409,0.41763 -9.0824,1.52778 -17.1572,8.43791 -22.6398,15.83828 -1.8129,2.44725 -6.6353,5.28773 -6.6353,5.28773 -10.3346,7.59382 -19.0136,22.93722 -19.0136,22.93722 -5.7373,9.57638 -12.1785,31.69023 -11.919,48.12574 -0.7063,0.56132 -1.3716,1.16751 -1.9868,1.82054 -5.8613,6.22143 -9.9436,15.29062 -9.4816,23.82571 0.1685,3.11307 1.9501,5.17052 4.8919,6.20284 5.0003,1.7547 9.9389,-7.57556 14.0713,-4.25818 19.6468,15.77182 24.9372,19.16488 35.7382,22.12374 14.9462,4.09448 36.5416,2.78223 47.6508,-8.02268 2.394,-2.3285 4.4944,-5.28875 6.2535,-8.64118 l -0.6114,-1.76073 c 5.6716,-10.81578 7.0185,-27.22684 2.7445,-37.11434 -1.3737,-3.17828 -7.594,-9.723 -11.3415,-9.75852 -1.1526,-0.0109 -2.07,0.59599 -2.5418,2.10367 -10.4534,-5.2506 -32.8398,-4.73072 -27.8957,-21.66913 4.9753,5.18925 27.8713,7.3427 31.9911,-6.63981 -0.9289,-2.40448 -8.3759,-4.88609 -17.5046,-14.18473 -1.0305,-2.34888 -0.5288,-4.5526 -1.811,-7.84671 -1.489,-1.49897 -2.9457,-2.83646 -4.2467,-3.96848 -3.718,-4.96403 -1.1359,-15.09046 5.1888,-17.80161 3.7147,-1.59232 2.3969,-2.00407 0.1557,-2.00273 v 0 c -1.857,10e-4 -4.3476,0.28584 -5.135,0.41831 -2.1534,0.36224 -4.2494,1.02998 -6.2686,1.93221 1.1869,-2.37217 3.0041,-4.36737 5.3262,-5.36275 3.8207,-1.6378 2.3173,-2.02708 -0.039,-2.00204 z"
         style="fill:#000000;fill-opacity:1;stroke:#000000;stroke-width:5.29166651;stroke-linecap:butt;stroke-linejoin:miter;stroke-miterlimit:4;stroke-dasharray:none;stroke-opacity:1" />
      <path
         style="fill:url(#linearGradient5174);fill-opacity:1;stroke:none;stroke-width:0.00853629px;stroke-linecap:butt;stroke-linejoin:miter;stroke-opacity:1"
         d="m -4653.8272,-878.36379 c -1.8568,10e-4 -4.3479,0.28605 -5.1353,0.41852 -9.0824,1.52778 -17.157,8.4381 -22.6395,15.83848 -1.8131,2.44724 -6.6355,5.28777 -6.6355,5.28777 0,10e-4 -0.01,0.003 -0.01,0.005 h 30.9876 c -0.6262,-0.47623 -0.9877,-0.73226 -0.9877,-0.73226 -5.0089,-4.43712 -2.5315,-15.90245 4.261,-18.81409 3.7145,-1.59231 2.3967,-2.00431 0.1556,-2.00297 z"
         id="path5143"
         inkscape:connector-curvature="0" />
      <path
         sodipodi:nodetypes="ssssszsccccss"
         inkscape:connector-curvature="0"
         id="path5124"
         d="m -4716.7948,-771.59487 c -16.1107,-6.41864 -5.3766,-52.28266 3.6217,-67.30218 0,0 8.6789,-15.34324 19.0135,-22.93707 0,0 4.8225,-2.8405 6.6354,-5.28775 5.4826,-7.40038 13.5573,-14.31069 22.6396,-15.83847 1.738,-0.29236 11.7721,-1.32719 4.9798,1.58445 -6.7923,2.91164 -9.2698,14.37697 -4.2609,18.81408 0,0 4.4557,3.1544 9.2407,7.971 1.282,3.29412 0.7803,5.498 1.8108,7.84687 9.1287,9.29866 16.5755,11.78029 17.5045,14.18477 -4.1198,13.98253 -27.0155,11.82892 -31.991,6.63966 -7.6987,26.37609 50.8753,10.4181 27.4639,39.83806 -16.0937,20.22422 -51.354,24.56786 -76.658,14.48658 z"
         style="fill:url(#linearGradient5166);fill-opacity:1;stroke:none;stroke-width:0.00853629px;stroke-linecap:butt;stroke-linejoin:miter;stroke-opacity:1" />
      <path
         sodipodi:nodetypes="ccccccccc"
         inkscape:connector-curvature="0"
         id="path5206"
         d="m -4648.8536,-791.77632 -1.4355,-1.01578 -6.1568,6.29534 c -5.1485,14.68782 1.0512,37.62829 18.5663,34.99878 l 9.9247,-6.22229 -0.9633,-2.77431 2.6695,-7.86258 c 1.1479,-13.75056 -10.0157,-27.5024 -18.6733,-24.22171 z"
         style="fill:#ea7f01;fill-opacity:1;stroke:none;stroke-width:0.00853629px;stroke-linecap:butt;stroke-linejoin:miter;stroke-opacity:1" />
      <path
         sodipodi:nodetypes="ssccsssscccccccccscs"
         inkscape:connector-curvature="0"
         id="path5135"
         d="m -4702.4226,-796.88222 c -3.1553,-0.003 -6.2147,0.19811 -9.0968,0.63822 -5.6625,0.86468 -11.6317,3.12433 -15.5596,7.29352 -5.8613,6.22142 -9.9435,15.29035 -9.4815,23.82545 0.1685,3.11307 1.95,5.17073 4.8918,6.20305 5.0003,1.75471 9.9389,-7.57549 14.0713,-4.25812 19.6468,15.77184 24.9373,19.16479 35.7383,22.12365 14.9463,4.09446 36.5416,2.78205 47.6508,-8.02287 2.394,-2.3285 4.4943,-5.28853 6.2534,-8.64095 l -6.2966,-0.17993 5.7621,-10.03013 -15.1521,3.2011 10.6704,-6.61562 -13.8715,-2.56088 8.323,-14.72512 -13.4448,1.28044 c 0,0 0.7738,-2.59184 1.6623,-5.43643 -2.5605,1.02803 -5.1091,2.92725 -8.2398,3.59297 -2.8011,0.59564 -6.1737,0.0835 -8.7303,-0.9722 -10.2058,-3.84582 -23.3476,-6.70578 -35.1504,-6.71615 z"
         style="fill:url(#linearGradient5158);fill-opacity:1;stroke:none;stroke-width:0.0146014px;stroke-linecap:butt;stroke-linejoin:miter;stroke-opacity:1" />
      <path
         sodipodi:nodetypes="sccccccccccccs"
         style="fill:url(#linearGradient5198);fill-opacity:1;stroke:none;stroke-width:0.01302544px;stroke-linecap:butt;stroke-linejoin:miter;stroke-opacity:1"
         d="m -4637.1632,-806.35394 c -1.5528,-0.0147 -2.681,1.0882 -2.8638,4.01134 -0.2491,3.98163 -3.2376,8.12274 -6.9114,9.75945 -0.6394,0.28486 -1.9079,0.11443 -2.5443,0.36733 -0.7927,2.53759 -1.1991,3.73366 -1.1991,3.73366 l 12.6149,-0.6014 -6.2669,14.45226 11.7022,3.24872 -8.5936,5.67643 13.0265,-2.42824 -4.2154,9.46425 3.8432,-0.80242 c 5.6755,-10.81569 7.0243,-27.23269 2.7492,-37.1228 -1.3737,-3.17827 -7.594,-9.72306 -11.3415,-9.75858 z"
         id="path5196"
         inkscape:connector-curvature="0" />
    </g>
  </g>
</svg>
